<svg width="40" height="36" viewBox="0 0 40 36" fill="none" xmlns="http://www.w3.org/2000/svg">
<mask id="mask0" mask-type="alpha" maskUnits="userSpaceOnUse" x="0" y="0" width="15" height="17">
<path fill-rule="evenodd" clip-rule="evenodd" d="M0 0.117386H14.3912V16.9767H0V0.117386Z" fill="white"/>
</mask>
<g mask="url(#mask0)">
<path fill-rule="evenodd" clip-rule="evenodd" d="M4.90463 12.5073C4.83047 12.9493 4.80547 13.3257 4.80547 13.6795C4.80547 14.1887 4.85463 14.6533 4.90463 15.1844C4.92963 15.6272 4.9788 16.4683 5.59797 16.4683C5.7713 16.4683 5.96963 16.4238 6.09297 16.3129C7.50547 15.4944 7.55463 13.5249 7.55463 11.8435V8.98911C7.4563 9.52016 7.05963 9.89659 6.81213 10.0512C5.2013 11.1133 5.07797 11.2687 4.90463 12.5073ZM7.48047 3.5904L7.3563 3.67944C6.3413 2.28544 3.98797 2.10816 3.98797 0.869587C3.98797 0.603254 4.1863 0.11673 4.92963 0.11673C6.29213 0.11673 6.3163 2.19721 7.48047 3.5904ZM12.5588 15.4062C12.5588 15.76 12.5588 16.3793 12.9555 16.3793C13.3013 16.3793 14.1438 15.7381 14.218 13.3921H14.3913C14.3913 13.9232 14.243 16.0255 13.1038 16.5557C12.5338 16.8439 11.7905 16.9767 11.0971 16.9767C10.6013 16.9767 10.1555 16.9103 9.78463 16.7775C8.39713 16.291 7.9763 15.7818 7.57963 14.4769C7.05963 15.9364 6.3163 16.5339 5.62297 16.7775C5.2513 16.9103 4.80547 16.9322 4.26047 16.9322C2.15463 16.9322 -0.000366211 16.4019 -0.000366211 13.9895C-0.000366211 13.6358 0.0746338 13.282 0.172967 12.972C0.7188 11.4007 1.83297 11.2461 3.54213 10.9805L4.13713 10.8923C7.4313 10.405 7.57963 8.87902 7.57963 7.57325C7.57963 5.42721 6.73713 5.24992 5.7963 5.24992C5.27547 5.24992 3.74047 5.3163 3.24463 6.40106C3.3938 6.33468 3.5913 6.31202 3.78963 6.31202C4.6813 6.31202 5.87047 6.90944 5.87047 8.14882C5.87047 9.47563 4.58213 10.3167 3.3688 10.3167C2.15463 10.3167 0.965467 9.45378 0.965467 8.1043C0.965467 6.26749 3.54213 5.05078 6.6388 5.05078C8.14963 5.05078 9.75963 5.33897 10.8496 6.02463C12.4838 7.04221 12.5588 8.36983 12.5588 9.63106V15.4062Z" fill="white"/>
</g>
<path fill-rule="evenodd" clip-rule="evenodd" d="M26.0602 21.7209C26.0602 19.8692 25.4694 19.1559 24.5 19.1559C23.5545 19.1559 22.9637 19.8692 22.9637 21.7209V28.2791C22.9637 30.13 23.5545 30.8441 24.5 30.8441C25.4694 30.8441 26.0602 30.13 26.0602 28.2791V21.7209ZM24.5 19C28.022 19 31 21.6768 31 25C31 28.3232 28.022 31 24.5 31C20.978 31 18 28.3232 18 25C18 21.6768 20.978 19 24.5 19Z" fill="white"/>
<mask id="mask1" mask-type="alpha" maskUnits="userSpaceOnUse" x="30" y="14" width="10" height="18">
<path fill-rule="evenodd" clip-rule="evenodd" d="M30.7242 14.3675H39.915V31.3178H30.7242V14.3675Z" fill="white"/>
</mask>
<g mask="url(#mask1)">
<path fill-rule="evenodd" clip-rule="evenodd" d="M35.1092 14.3675C36.5959 14.3675 37.8342 15.3518 37.8342 16.5365C37.8342 17.7221 36.5959 18.7055 35.1092 18.7055C33.6226 18.7055 32.4092 17.7221 32.4092 16.5365C32.4092 15.3518 33.6226 14.3675 35.1092 14.3675ZM39.9151 31.3178H30.7242V31.1844C32.6576 31.1844 32.8309 30.6469 32.8309 28.9925V21.8367C32.8309 20.1815 32.6576 19.7119 30.7242 19.7119V19.5556H37.8342V28.9925C37.8342 30.6469 37.9826 31.1844 39.9151 31.1844V31.3178Z" fill="white"/>
</g>
<path fill-rule="evenodd" clip-rule="evenodd" d="M8.65864 31.3464V20.7587H7V20.5551C9.10548 20.4678 10.7633 19.7986 12.1977 18.8971C13.2176 18.2576 14.6844 17.1228 14.907 15H15.0988V20.5551H18V20.7587H15.0988V32.1606C15.0988 34.6625 15.2267 34.8949 15.8322 34.8949C16.0872 34.8949 16.6287 34.8076 17.1071 33.7321C17.3945 33.0918 17.6495 31.6085 17.6495 30.2125H17.8729C17.8729 31.114 17.745 32.0444 17.554 32.9171C17.299 34.0807 16.8206 36 13.1545 36C9.35963 36 8.65864 34.5752 8.65864 31.3464Z" fill="white"/>
</svg>
